<mxfile host="app.diagrams.net" agent="Mozilla/5.0 (Windows NT 10.0; Win64; x64) AppleWebKit/537.36 (KHTML, like Gecko) Chrome/138.0.0.0 Safari/537.36 Edg/138.0.0.0" version="27.2.0">
  <diagram name="Page-1" id="2G0KlNb7o2d64lPc6y1j">
    <mxGraphModel dx="2268" dy="786" grid="1" gridSize="10" guides="1" tooltips="1" connect="1" arrows="1" fold="1" page="1" pageScale="1" pageWidth="850" pageHeight="1100" math="0" shadow="0">
      <root>
        <mxCell id="0" />
        <mxCell id="1" parent="0" />
        <mxCell id="T0aeLHLOD08y2RY99zy8-15" style="edgeStyle=orthogonalEdgeStyle;rounded=0;orthogonalLoop=1;jettySize=auto;html=1;" edge="1" parent="1" source="r_bqWtndOqf1YVsXn3kx-1" target="T0aeLHLOD08y2RY99zy8-14">
          <mxGeometry relative="1" as="geometry" />
        </mxCell>
        <mxCell id="r_bqWtndOqf1YVsXn3kx-1" value="Kho" style="shape=cylinder3;whiteSpace=wrap;html=1;boundedLbl=1;backgroundOutline=1;size=15;" parent="1" vertex="1">
          <mxGeometry x="135" y="380" width="60" height="80" as="geometry" />
        </mxCell>
        <mxCell id="r_bqWtndOqf1YVsXn3kx-3" value="Mua" style="rounded=0;whiteSpace=wrap;html=1;" parent="1" vertex="1">
          <mxGeometry x="-120" y="87.5" width="120" height="60" as="geometry" />
        </mxCell>
        <mxCell id="r_bqWtndOqf1YVsXn3kx-10" style="edgeStyle=orthogonalEdgeStyle;rounded=0;orthogonalLoop=1;jettySize=auto;html=1;entryX=0.5;entryY=0;entryDx=0;entryDy=0;" parent="1" source="r_bqWtndOqf1YVsXn3kx-6" target="r_bqWtndOqf1YVsXn3kx-9" edge="1">
          <mxGeometry relative="1" as="geometry" />
        </mxCell>
        <mxCell id="r_bqWtndOqf1YVsXn3kx-6" value="ERP" style="shape=umlFrame;whiteSpace=wrap;html=1;pointerEvents=0;dashed=1;width=55;height=20;" parent="1" vertex="1">
          <mxGeometry x="75" y="65" width="180" height="105" as="geometry" />
        </mxCell>
        <mxCell id="r_bqWtndOqf1YVsXn3kx-7" value="-Nhập linh kiện&lt;br&gt;-In tem&lt;div&gt;-Dán tem&lt;/div&gt;" style="text;html=1;align=left;verticalAlign=middle;whiteSpace=wrap;rounded=0;fontSize=15;" parent="1" vertex="1">
          <mxGeometry x="90" y="110" width="205" height="30" as="geometry" />
        </mxCell>
        <mxCell id="r_bqWtndOqf1YVsXn3kx-8" style="edgeStyle=orthogonalEdgeStyle;rounded=0;orthogonalLoop=1;jettySize=auto;html=1;entryX=-0.004;entryY=0.495;entryDx=0;entryDy=0;entryPerimeter=0;" parent="1" source="r_bqWtndOqf1YVsXn3kx-3" target="r_bqWtndOqf1YVsXn3kx-6" edge="1">
          <mxGeometry relative="1" as="geometry" />
        </mxCell>
        <mxCell id="r_bqWtndOqf1YVsXn3kx-13" style="edgeStyle=orthogonalEdgeStyle;rounded=0;orthogonalLoop=1;jettySize=auto;html=1;entryX=0.5;entryY=0;entryDx=0;entryDy=0;entryPerimeter=0;" parent="1" source="r_bqWtndOqf1YVsXn3kx-9" target="r_bqWtndOqf1YVsXn3kx-1" edge="1">
          <mxGeometry relative="1" as="geometry">
            <mxPoint x="165" y="430" as="targetPoint" />
          </mxGeometry>
        </mxCell>
        <mxCell id="r_bqWtndOqf1YVsXn3kx-14" value="MES" style="shape=umlFrame;whiteSpace=wrap;html=1;pointerEvents=0;dashed=1;" parent="1" vertex="1">
          <mxGeometry x="-120" y="360" width="650" height="980" as="geometry" />
        </mxCell>
        <mxCell id="r_bqWtndOqf1YVsXn3kx-16" value="&lt;b style=&quot;forced-color-adjust: none; color: rgb(255, 255, 255); font-family: Helvetica; font-size: 12px; font-style: normal; font-variant-ligatures: normal; font-variant-caps: normal; letter-spacing: normal; orphans: 2; text-align: center; text-indent: 0px; text-transform: none; widows: 2; word-spacing: 0px; -webkit-text-stroke-width: 0px; white-space: normal; background-color: rgb(27, 29, 30); text-decoration-thickness: initial; text-decoration-style: initial; text-decoration-color: initial; box-shadow: none !important;&quot;&gt;WO Note&lt;/b&gt;" style="shape=note;whiteSpace=wrap;html=1;backgroundOutline=1;darkOpacity=0.05;" parent="1" vertex="1">
          <mxGeometry x="95" y="520" width="155" height="40" as="geometry" />
        </mxCell>
        <mxCell id="r_bqWtndOqf1YVsXn3kx-17" value="" style="group" parent="1" vertex="1" connectable="0">
          <mxGeometry x="105" y="260" width="120" height="60" as="geometry" />
        </mxCell>
        <mxCell id="r_bqWtndOqf1YVsXn3kx-9" value="Bắn tem" style="rounded=0;whiteSpace=wrap;html=1;movable=1;resizable=1;rotatable=1;deletable=1;editable=1;locked=0;connectable=1;" parent="r_bqWtndOqf1YVsXn3kx-17" vertex="1">
          <mxGeometry width="120" height="60" as="geometry" />
        </mxCell>
        <mxCell id="r_bqWtndOqf1YVsXn3kx-12" value="PDA" style="verticalLabelPosition=bottom;html=1;verticalAlign=top;align=center;strokeColor=none;fillColor=#00BEF2;shape=mxgraph.azure.mobile_services;pointerEvents=1;movable=1;resizable=1;rotatable=1;deletable=1;editable=1;locked=0;connectable=1;" parent="r_bqWtndOqf1YVsXn3kx-17" vertex="1">
          <mxGeometry x="95" y="10" width="20" height="30" as="geometry" />
        </mxCell>
        <mxCell id="T0aeLHLOD08y2RY99zy8-1" value="ERP" style="shape=umlFrame;whiteSpace=wrap;html=1;pointerEvents=0;dashed=1;" vertex="1" parent="1">
          <mxGeometry x="-790" y="360" width="650" height="510" as="geometry" />
        </mxCell>
        <mxCell id="T0aeLHLOD08y2RY99zy8-3" value="Product BOM" style="shape=note;whiteSpace=wrap;html=1;backgroundOutline=1;darkOpacity=0.05;" vertex="1" parent="1">
          <mxGeometry x="-760" y="410" width="155" height="120" as="geometry" />
        </mxCell>
        <mxCell id="T0aeLHLOD08y2RY99zy8-4" value="Công đoạn" style="swimlane;fontStyle=0;childLayout=stackLayout;horizontal=1;startSize=26;fillColor=none;horizontalStack=0;resizeParent=1;resizeParentMax=0;resizeLast=0;collapsible=1;marginBottom=0;whiteSpace=wrap;html=1;" vertex="1" parent="1">
          <mxGeometry x="750" width="90" height="260" as="geometry" />
        </mxCell>
        <mxCell id="T0aeLHLOD08y2RY99zy8-5" value="30: SMT-A" style="text;strokeColor=none;fillColor=none;align=left;verticalAlign=top;spacingLeft=4;spacingRight=4;overflow=hidden;rotatable=0;points=[[0,0.5],[1,0.5]];portConstraint=eastwest;whiteSpace=wrap;html=1;" vertex="1" parent="T0aeLHLOD08y2RY99zy8-4">
          <mxGeometry y="26" width="90" height="26" as="geometry" />
        </mxCell>
        <mxCell id="T0aeLHLOD08y2RY99zy8-6" value="31: AVK" style="text;strokeColor=none;fillColor=none;align=left;verticalAlign=top;spacingLeft=4;spacingRight=4;overflow=hidden;rotatable=0;points=[[0,0.5],[1,0.5]];portConstraint=eastwest;whiteSpace=wrap;html=1;" vertex="1" parent="T0aeLHLOD08y2RY99zy8-4">
          <mxGeometry y="52" width="90" height="26" as="geometry" />
        </mxCell>
        <mxCell id="T0aeLHLOD08y2RY99zy8-7" value="32: SMT -B" style="text;strokeColor=none;fillColor=none;align=left;verticalAlign=top;spacingLeft=4;spacingRight=4;overflow=hidden;rotatable=0;points=[[0,0.5],[1,0.5]];portConstraint=eastwest;whiteSpace=wrap;html=1;" vertex="1" parent="T0aeLHLOD08y2RY99zy8-4">
          <mxGeometry y="78" width="90" height="26" as="geometry" />
        </mxCell>
        <mxCell id="T0aeLHLOD08y2RY99zy8-8" value="34: JVK" style="text;strokeColor=none;fillColor=none;align=left;verticalAlign=top;spacingLeft=4;spacingRight=4;overflow=hidden;rotatable=0;points=[[0,0.5],[1,0.5]];portConstraint=eastwest;whiteSpace=wrap;html=1;" vertex="1" parent="T0aeLHLOD08y2RY99zy8-4">
          <mxGeometry y="104" width="90" height="26" as="geometry" />
        </mxCell>
        <mxCell id="T0aeLHLOD08y2RY99zy8-9" value="37: DIP" style="text;strokeColor=none;fillColor=none;align=left;verticalAlign=top;spacingLeft=4;spacingRight=4;overflow=hidden;rotatable=0;points=[[0,0.5],[1,0.5]];portConstraint=eastwest;whiteSpace=wrap;html=1;" vertex="1" parent="T0aeLHLOD08y2RY99zy8-4">
          <mxGeometry y="130" width="90" height="26" as="geometry" />
        </mxCell>
        <mxCell id="T0aeLHLOD08y2RY99zy8-10" value="38: ASSY" style="text;strokeColor=none;fillColor=none;align=left;verticalAlign=top;spacingLeft=4;spacingRight=4;overflow=hidden;rotatable=0;points=[[0,0.5],[1,0.5]];portConstraint=eastwest;whiteSpace=wrap;html=1;" vertex="1" parent="T0aeLHLOD08y2RY99zy8-4">
          <mxGeometry y="156" width="90" height="26" as="geometry" />
        </mxCell>
        <mxCell id="T0aeLHLOD08y2RY99zy8-11" value="40: FCT" style="text;strokeColor=none;fillColor=none;align=left;verticalAlign=top;spacingLeft=4;spacingRight=4;overflow=hidden;rotatable=0;points=[[0,0.5],[1,0.5]];portConstraint=eastwest;whiteSpace=wrap;html=1;" vertex="1" parent="T0aeLHLOD08y2RY99zy8-4">
          <mxGeometry y="182" width="90" height="26" as="geometry" />
        </mxCell>
        <mxCell id="T0aeLHLOD08y2RY99zy8-12" value="64: ICT" style="text;strokeColor=none;fillColor=none;align=left;verticalAlign=top;spacingLeft=4;spacingRight=4;overflow=hidden;rotatable=0;points=[[0,0.5],[1,0.5]];portConstraint=eastwest;whiteSpace=wrap;html=1;" vertex="1" parent="T0aeLHLOD08y2RY99zy8-4">
          <mxGeometry y="208" width="90" height="26" as="geometry" />
        </mxCell>
        <mxCell id="T0aeLHLOD08y2RY99zy8-13" value="70: Đóng gói" style="text;strokeColor=none;fillColor=none;align=left;verticalAlign=top;spacingLeft=4;spacingRight=4;overflow=hidden;rotatable=0;points=[[0,0.5],[1,0.5]];portConstraint=eastwest;whiteSpace=wrap;html=1;" vertex="1" parent="T0aeLHLOD08y2RY99zy8-4">
          <mxGeometry y="234" width="90" height="26" as="geometry" />
        </mxCell>
        <mxCell id="T0aeLHLOD08y2RY99zy8-14" value="Kanban tiến độ bắn nhập linh kiện đầu vào" style="rounded=1;whiteSpace=wrap;html=1;" vertex="1" parent="1">
          <mxGeometry x="250" y="390" width="140" height="60" as="geometry" />
        </mxCell>
        <mxCell id="T0aeLHLOD08y2RY99zy8-16" value="Product BOM" style="shape=note;whiteSpace=wrap;html=1;backgroundOutline=1;darkOpacity=0.05;" vertex="1" parent="1">
          <mxGeometry x="95" y="600" width="155" height="40" as="geometry" />
        </mxCell>
        <mxCell id="T0aeLHLOD08y2RY99zy8-31" style="edgeStyle=orthogonalEdgeStyle;rounded=0;orthogonalLoop=1;jettySize=auto;html=1;" edge="1" parent="1" source="T0aeLHLOD08y2RY99zy8-27" target="T0aeLHLOD08y2RY99zy8-28">
          <mxGeometry relative="1" as="geometry" />
        </mxCell>
        <mxCell id="T0aeLHLOD08y2RY99zy8-27" value="Công đoạn 1" style="rounded=0;whiteSpace=wrap;html=1;" vertex="1" parent="1">
          <mxGeometry x="105" y="750" width="120" height="60" as="geometry" />
        </mxCell>
        <mxCell id="T0aeLHLOD08y2RY99zy8-28" value="Công đoạn 2" style="rounded=0;whiteSpace=wrap;html=1;" vertex="1" parent="1">
          <mxGeometry x="105" y="920" width="120" height="60" as="geometry" />
        </mxCell>
        <mxCell id="T0aeLHLOD08y2RY99zy8-29" value="Đóng gói" style="rounded=0;whiteSpace=wrap;html=1;" vertex="1" parent="1">
          <mxGeometry x="105" y="1090" width="120" height="60" as="geometry" />
        </mxCell>
        <mxCell id="T0aeLHLOD08y2RY99zy8-30" value="Phiếu DCCD" style="shape=note;whiteSpace=wrap;html=1;backgroundOutline=1;darkOpacity=0.05;" vertex="1" parent="1">
          <mxGeometry x="97.5" y="850" width="135" height="30" as="geometry" />
        </mxCell>
        <mxCell id="T0aeLHLOD08y2RY99zy8-32" style="edgeStyle=orthogonalEdgeStyle;rounded=0;orthogonalLoop=1;jettySize=auto;html=1;entryX=0;entryY=0.5;entryDx=0;entryDy=0;entryPerimeter=0;" edge="1" parent="1" source="T0aeLHLOD08y2RY99zy8-29" target="r_bqWtndOqf1YVsXn3kx-1">
          <mxGeometry relative="1" as="geometry">
            <Array as="points">
              <mxPoint x="-80" y="1120" />
              <mxPoint x="-80" y="420" />
            </Array>
          </mxGeometry>
        </mxCell>
      </root>
    </mxGraphModel>
  </diagram>
</mxfile>
